<?xml version="1.0" encoding="UTF-8"?>
<svg id="Layer_1" data-name="Layer 1" xmlns="http://www.w3.org/2000/svg" viewBox="0 0 841.89 595.28">
  <defs>
    <style>
      .cls-1 {
        fill: #fff;
      }

      .cls-2 {
        fill: #262261;
      }
    </style>
  </defs>
  <rect class="cls-2" x="195.99" y="67.17" width="476.51" height="448.25" rx="70.32" ry="70.32"/>
  <path class="cls-1" d="M431.63,261.44c.72.92,1.35,1.47,2.68,1.94l-.3-5.02-.08-29.52c-1.08.6-1.87,1.25-2.63,2.19-4.53,5.61-11,9.1-18.53,9.13l-51.8.2c-.78,0-1.59-.85-1.59-1.65v-82.04c0-.85.72-1.62,1.66-1.62l169.22.07c4.27,0,8.01,2.42,11.11,4.61,3.88,2.74,6.02,6.54,8.3,10.77.96-.84.72-1.92.88-3.11l1.01-7.63c.43-3.2.61-6.24,1.09-9.43.42-2.79.55-5.12.77-8.36l-4.31.95h-233.26c-.2.01-1.06.47-.96.65.86,1.51,9.19,5.78,10.55,17.6.22,1.86.65,3.17.65,5.19l-.1,209.32c0,2.84-.99,5.69-1.51,8.21-.72,3.47-2.51,6.34-4.56,9.01-2.93,3.8-4.21,3.47-5.1,5.09-.11.2.8.69,1.34.69h53.03c.79,0,1.49-.45,1.97-.91-5.14-3.84-9.17-8.43-10.63-14.7-.32-1.38-1.18-2.93-1.18-4.53l.02-124.47c0-.91.75-1.63,1.59-1.63l51.24.04c7.34,0,14.77,3.08,19.4,8.96ZM433.99,443.21c-.35-1.14-.95-2.57-1.09-3.49-.37-2.61-1.04-5.24-1.04-7.96l.88-128.01c0-1.18.87-1.99,1.98-2l44.84-.05c1.18,0,14.57-1.7,16.3-2.05l7.03-1.42c9.89-2,19.17-5.89,27.71-11.18,5.35-3.31,9.7-7.22,13.67-12.08,8.52-10.42,11.12-24.9,8.28-37.81-3.74-17.02-17.17-28.06-32.52-34.5-1.43-.6-2.83-1.21-4.25-1.69l-3.34-1.11c-1.5-.5-3.12-.93-4.67-1.31l-4.86-1.19c-1.99-.49-4.2-1.01-6.2-1.3l-8.82-1.3c-1.96-.29-4.23-.25-6.28-.4l-6.89-.49-74.91-.06-.04,22.53c1.1-.56,1.81-1.19,2.49-2.07,3.16-3.63,7.15-6.31,11.94-7.57,2.32-.61,5.14-1.5,7.68-1.5h45.24c1.79.01,3.82.64,5.63.87,8.62,1.11,16.83,4.15,23.88,9.22,3.74,2.69,6.79,6.01,9.61,9.62,3.12,4,5.13,8.84,6.32,13.74,1.56,6.42,1.59,11.41.08,17.84-3.62,15.39-14.99,26.02-29.89,30.64-2.13.66-11.2,2.78-12.84,2.79l-67.97.12c-.78,0-1.6.4-2.15.86l-1.12,142.38c-.01,8.83-3.98,16.48-10.82,21.79-.21.19.71.91,1.11.91h52.35c.65,0,1.67-.61,1.63-.98-3.91-3.34-7.41-6.75-8.94-11.8Z"/>
</svg>